<svg id="visual" viewBox="0 0 900 600" width="900" height="600" xmlns="http://www.w3.org/2000/svg" xmlns:xlink="http://www.w3.org/1999/xlink" version="1.1"><rect x="0" y="0" width="900" height="600" fill="#070206"></rect><path d="M0 513L39 513L39 502L78 502L78 511L117 511L117 496L157 496L157 506L196 506L196 528L235 528L235 491L274 491L274 496L313 496L313 520L352 520L352 562L391 562L391 513L430 513L430 502L470 502L470 537L509 537L509 578L548 578L548 524L587 524L587 597L626 597L626 524L665 524L665 483L704 483L704 511L743 511L743 531L783 531L783 494L822 494L822 542L861 542L861 525L900 525L900 525L900 601L900 601L861 601L861 601L822 601L822 601L783 601L783 601L743 601L743 601L704 601L704 601L665 601L665 601L626 601L626 601L587 601L587 601L548 601L548 601L509 601L509 601L470 601L470 601L430 601L430 601L391 601L391 601L352 601L352 601L313 601L313 601L274 601L274 601L235 601L235 601L196 601L196 601L157 601L157 601L117 601L117 601L78 601L78 601L39 601L39 601L0 601Z" fill="#f80241"></path><path d="M0 511L39 511L39 572L78 572L78 494L117 494L117 529L157 529L157 532L196 532L196 581L235 581L235 554L274 554L274 535L313 535L313 519L352 519L352 577L391 577L391 584L430 584L430 549L470 549L470 588L509 588L509 533L548 533L548 560L587 560L587 491L626 491L626 522L665 522L665 540L704 540L704 553L743 553L743 502L783 502L783 500L822 500L822 588L861 588L861 534L900 534L900 565L900 601L900 601L861 601L861 601L822 601L822 601L783 601L783 601L743 601L743 601L704 601L704 601L665 601L665 601L626 601L626 601L587 601L587 601L548 601L548 601L509 601L509 601L470 601L470 601L430 601L430 601L391 601L391 601L352 601L352 601L313 601L313 601L274 601L274 601L235 601L235 601L196 601L196 601L157 601L157 601L117 601L117 601L78 601L78 601L39 601L39 601L0 601Z" fill="#ef013a"></path><path d="M0 523L39 523L39 502L78 502L78 508L117 508L117 597L157 597L157 511L196 511L196 561L235 561L235 581L274 581L274 564L313 564L313 581L352 581L352 532L391 532L391 532L430 532L430 553L470 553L470 553L509 553L509 551L548 551L548 503L587 503L587 522L626 522L626 562L665 562L665 510L704 510L704 556L743 556L743 508L783 508L783 508L822 508L822 551L861 551L861 565L900 565L900 587L900 601L900 601L861 601L861 601L822 601L822 601L783 601L783 601L743 601L743 601L704 601L704 601L665 601L665 601L626 601L626 601L587 601L587 601L548 601L548 601L509 601L509 601L470 601L470 601L430 601L430 601L391 601L391 601L352 601L352 601L313 601L313 601L274 601L274 601L235 601L235 601L196 601L196 601L157 601L157 601L117 601L117 601L78 601L78 601L39 601L39 601L0 601Z" fill="#e50032"></path><path d="M0 520L39 520L39 517L78 517L78 562L117 562L117 557L157 557L157 541L196 541L196 515L235 515L235 594L274 594L274 595L313 595L313 560L352 560L352 592L391 592L391 578L430 578L430 597L470 597L470 559L509 559L509 538L548 538L548 551L587 551L587 579L626 579L626 515L665 515L665 590L704 590L704 583L743 583L743 561L783 561L783 593L822 593L822 530L861 530L861 560L900 560L900 513L900 601L900 601L861 601L861 601L822 601L822 601L783 601L783 601L743 601L743 601L704 601L704 601L665 601L665 601L626 601L626 601L587 601L587 601L548 601L548 601L509 601L509 601L470 601L470 601L430 601L430 601L391 601L391 601L352 601L352 601L313 601L313 601L274 601L274 601L235 601L235 601L196 601L196 601L157 601L157 601L117 601L117 601L78 601L78 601L39 601L39 601L0 601Z" fill="#dc002b"></path><path d="M0 580L39 580L39 591L78 591L78 586L117 586L117 540L157 540L157 535L196 535L196 593L235 593L235 568L274 568L274 523L313 523L313 529L352 529L352 528L391 528L391 545L430 545L430 552L470 552L470 574L509 574L509 595L548 595L548 560L587 560L587 539L626 539L626 529L665 529L665 553L704 553L704 543L743 543L743 584L783 584L783 561L822 561L822 561L861 561L861 586L900 586L900 530L900 601L900 601L861 601L861 601L822 601L822 601L783 601L783 601L743 601L743 601L704 601L704 601L665 601L665 601L626 601L626 601L587 601L587 601L548 601L548 601L509 601L509 601L470 601L470 601L430 601L430 601L391 601L391 601L352 601L352 601L313 601L313 601L274 601L274 601L235 601L235 601L196 601L196 601L157 601L157 601L117 601L117 601L78 601L78 601L39 601L39 601L0 601Z" fill="#d30024"></path><path d="M0 578L39 578L39 545L78 545L78 567L117 567L117 538L157 538L157 537L196 537L196 569L235 569L235 565L274 565L274 564L313 564L313 563L352 563L352 578L391 578L391 599L430 599L430 536L470 536L470 550L509 550L509 571L548 571L548 592L587 592L587 534L626 534L626 586L665 586L665 549L704 549L704 565L743 565L743 593L783 593L783 574L822 574L822 557L861 557L861 536L900 536L900 551L900 601L900 601L861 601L861 601L822 601L822 601L783 601L783 601L743 601L743 601L704 601L704 601L665 601L665 601L626 601L626 601L587 601L587 601L548 601L548 601L509 601L509 601L470 601L470 601L430 601L430 601L391 601L391 601L352 601L352 601L313 601L313 601L274 601L274 601L235 601L235 601L196 601L196 601L157 601L157 601L117 601L117 601L78 601L78 601L39 601L39 601L0 601Z" fill="#c9001e"></path><path d="M0 591L39 591L39 572L78 572L78 546L117 546L117 594L157 594L157 575L196 575L196 547L235 547L235 567L274 567L274 593L313 593L313 560L352 560L352 548L391 548L391 569L430 569L430 571L470 571L470 551L509 551L509 557L548 557L548 586L587 586L587 591L626 591L626 594L665 594L665 556L704 556L704 567L743 567L743 549L783 549L783 554L822 554L822 561L861 561L861 586L900 586L900 564L900 601L900 601L861 601L861 601L822 601L822 601L783 601L783 601L743 601L743 601L704 601L704 601L665 601L665 601L626 601L626 601L587 601L587 601L548 601L548 601L509 601L509 601L470 601L470 601L430 601L430 601L391 601L391 601L352 601L352 601L313 601L313 601L274 601L274 601L235 601L235 601L196 601L196 601L157 601L157 601L117 601L117 601L78 601L78 601L39 601L39 601L0 601Z" fill="#c00016"></path><path d="M0 598L39 598L39 598L78 598L78 569L117 569L117 591L157 591L157 559L196 559L196 594L235 594L235 570L274 570L274 570L313 570L313 588L352 588L352 588L391 588L391 566L430 566L430 581L470 581L470 586L509 586L509 592L548 592L548 568L587 568L587 589L626 589L626 595L665 595L665 598L704 598L704 582L743 582L743 577L783 577L783 574L822 574L822 592L861 592L861 569L900 569L900 565L900 601L900 601L861 601L861 601L822 601L822 601L783 601L783 601L743 601L743 601L704 601L704 601L665 601L665 601L626 601L626 601L587 601L587 601L548 601L548 601L509 601L509 601L470 601L470 601L430 601L430 601L391 601L391 601L352 601L352 601L313 601L313 601L274 601L274 601L235 601L235 601L196 601L196 601L157 601L157 601L117 601L117 601L78 601L78 601L39 601L39 601L0 601Z" fill="#b7000f"></path><path d="M0 572L39 572L39 583L78 583L78 577L117 577L117 595L157 595L157 584L196 584L196 592L235 592L235 590L274 590L274 595L313 595L313 578L352 578L352 573L391 573L391 588L430 588L430 574L470 574L470 584L509 584L509 567L548 567L548 581L587 581L587 598L626 598L626 567L665 567L665 592L704 592L704 593L743 593L743 592L783 592L783 576L822 576L822 587L861 587L861 574L900 574L900 596L900 601L900 601L861 601L861 601L822 601L822 601L783 601L783 601L743 601L743 601L704 601L704 601L665 601L665 601L626 601L626 601L587 601L587 601L548 601L548 601L509 601L509 601L470 601L470 601L430 601L430 601L391 601L391 601L352 601L352 601L313 601L313 601L274 601L274 601L235 601L235 601L196 601L196 601L157 601L157 601L117 601L117 601L78 601L78 601L39 601L39 601L0 601Z" fill="#ae0007"></path><path d="M0 581L39 581L39 585L78 585L78 589L117 589L117 590L157 590L157 592L196 592L196 586L235 586L235 578L274 578L274 598L313 598L313 597L352 597L352 589L391 589L391 581L430 581L430 593L470 593L470 581L509 581L509 598L548 598L548 598L587 598L587 584L626 584L626 597L665 597L665 592L704 592L704 586L743 586L743 590L783 590L783 578L822 578L822 597L861 597L861 598L900 598L900 587L900 601L900 601L861 601L861 601L822 601L822 601L783 601L783 601L743 601L743 601L704 601L704 601L665 601L665 601L626 601L626 601L587 601L587 601L548 601L548 601L509 601L509 601L470 601L470 601L430 601L430 601L391 601L391 601L352 601L352 601L313 601L313 601L274 601L274 601L235 601L235 601L196 601L196 601L157 601L157 601L117 601L117 601L78 601L78 601L39 601L39 601L0 601Z" fill="#a50000"></path></svg>