<svg id="visual" viewBox="0 0 900 600" width="900" height="600" xmlns="http://www.w3.org/2000/svg" xmlns:xlink="http://www.w3.org/1999/xlink" version="1.1"><rect x="0" y="0" width="900" height="600" fill="#070206"></rect><path d="M0 172L39 172L39 193L78 193L78 176L117 176L117 204L157 204L157 184L196 184L196 141L235 141L235 215L274 215L274 206L313 206L313 156L352 156L352 72L391 72L391 170L430 170L430 192L470 192L470 124L509 124L509 42L548 42L548 149L587 149L587 4L626 4L626 149L665 149L665 230L704 230L704 176L743 176L743 136L783 136L783 209L822 209L822 112L861 112L861 147L900 147L900 146L900 0L900 0L861 0L861 0L822 0L822 0L783 0L783 0L743 0L743 0L704 0L704 0L665 0L665 0L626 0L626 0L587 0L587 0L548 0L548 0L509 0L509 0L470 0L470 0L430 0L430 0L391 0L391 0L352 0L352 0L313 0L313 0L274 0L274 0L235 0L235 0L196 0L196 0L157 0L157 0L117 0L117 0L78 0L78 0L39 0L39 0L0 0Z" fill="#f80241"></path><path d="M0 176L39 176L39 52L78 52L78 210L117 210L117 139L157 139L157 133L196 133L196 35L235 35L235 90L274 90L274 127L313 127L313 159L352 159L352 43L391 43L391 30L430 30L430 99L470 99L470 21L509 21L509 132L548 132L548 76L587 76L587 214L626 214L626 152L665 152L665 116L704 116L704 90L743 90L743 194L783 194L783 196L822 196L822 21L861 21L861 129L900 129L900 67L900 0L900 0L861 0L861 0L822 0L822 0L783 0L783 0L743 0L743 0L704 0L704 0L665 0L665 0L626 0L626 0L587 0L587 0L548 0L548 0L509 0L509 0L470 0L470 0L430 0L430 0L391 0L391 0L352 0L352 0L313 0L313 0L274 0L274 0L235 0L235 0L196 0L196 0L157 0L157 0L117 0L117 0L78 0L78 0L39 0L39 0L0 0Z" fill="#ef013a"></path><path d="M0 151L39 151L39 194L78 194L78 180L117 180L117 4L157 4L157 175L196 175L196 74L235 74L235 36L274 36L274 69L313 69L313 34L352 34L352 133L391 133L391 132L430 132L430 91L470 91L470 92L509 92L509 96L548 96L548 190L587 190L587 154L626 154L626 73L665 73L665 178L704 178L704 84L743 84L743 181L783 181L783 182L822 182L822 95L861 95L861 66L900 66L900 23L900 0L900 0L861 0L861 0L822 0L822 0L783 0L783 0L743 0L743 0L704 0L704 0L665 0L665 0L626 0L626 0L587 0L587 0L548 0L548 0L509 0L509 0L470 0L470 0L430 0L430 0L391 0L391 0L352 0L352 0L313 0L313 0L274 0L274 0L235 0L235 0L196 0L196 0L157 0L157 0L117 0L117 0L78 0L78 0L39 0L39 0L0 0Z" fill="#e50032"></path><path d="M0 156L39 156L39 163L78 163L78 73L117 73L117 83L157 83L157 115L196 115L196 166L235 166L235 9L274 9L274 7L313 7L313 78L352 78L352 13L391 13L391 40L430 40L430 3L470 3L470 78L509 78L509 122L548 122L548 95L587 95L587 39L626 39L626 167L665 167L665 18L704 18L704 32L743 32L743 75L783 75L783 12L822 12L822 137L861 137L861 77L900 77L900 170L900 0L900 0L861 0L861 0L822 0L822 0L783 0L783 0L743 0L743 0L704 0L704 0L665 0L665 0L626 0L626 0L587 0L587 0L548 0L548 0L509 0L509 0L470 0L470 0L430 0L430 0L391 0L391 0L352 0L352 0L313 0L313 0L274 0L274 0L235 0L235 0L196 0L196 0L157 0L157 0L117 0L117 0L78 0L78 0L39 0L39 0L0 0Z" fill="#dc002b"></path><path d="M0 37L39 37L39 15L78 15L78 24L117 24L117 116L157 116L157 127L196 127L196 12L235 12L235 62L274 62L274 152L313 152L313 139L352 139L352 141L391 141L391 108L430 108L430 94L470 94L470 49L509 49L509 7L548 7L548 77L587 77L587 119L626 119L626 139L665 139L665 91L704 91L704 112L743 112L743 28L783 28L783 74L822 74L822 76L861 76L861 24L900 24L900 138L900 0L900 0L861 0L861 0L822 0L822 0L783 0L783 0L743 0L743 0L704 0L704 0L665 0L665 0L626 0L626 0L587 0L587 0L548 0L548 0L509 0L509 0L470 0L470 0L430 0L430 0L391 0L391 0L352 0L352 0L313 0L313 0L274 0L274 0L235 0L235 0L196 0L196 0L157 0L157 0L117 0L117 0L78 0L78 0L39 0L39 0L0 0Z" fill="#d30024"></path><path d="M0 41L39 41L39 106L78 106L78 63L117 63L117 121L157 121L157 123L196 123L196 58L235 58L235 66L274 66L274 69L313 69L313 70L352 70L352 42L391 42L391 0L430 0L430 124L470 124L470 97L509 97L509 55L548 55L548 13L587 13L587 130L626 130L626 25L665 25L665 99L704 99L704 66L743 66L743 11L783 11L783 50L822 50L822 84L861 84L861 124L900 124L900 95L900 0L900 0L861 0L861 0L822 0L822 0L783 0L783 0L743 0L743 0L704 0L704 0L665 0L665 0L626 0L626 0L587 0L587 0L548 0L548 0L509 0L509 0L470 0L470 0L430 0L430 0L391 0L391 0L352 0L352 0L313 0L313 0L274 0L274 0L235 0L235 0L196 0L196 0L157 0L157 0L117 0L117 0L78 0L78 0L39 0L39 0L0 0Z" fill="#c9001e"></path><path d="M0 15L39 15L39 54L78 54L78 104L117 104L117 9L157 9L157 46L196 46L196 102L235 102L235 64L274 64L274 11L313 11L313 77L352 77L352 102L391 102L391 59L430 59L430 55L470 55L470 95L509 95L509 83L548 83L548 25L587 25L587 15L626 15L626 9L665 9L665 85L704 85L704 62L743 62L743 100L783 100L783 90L822 90L822 75L861 75L861 26L900 26L900 69L900 0L900 0L861 0L861 0L822 0L822 0L783 0L783 0L743 0L743 0L704 0L704 0L665 0L665 0L626 0L626 0L587 0L587 0L548 0L548 0L509 0L509 0L470 0L470 0L430 0L430 0L391 0L391 0L352 0L352 0L313 0L313 0L274 0L274 0L235 0L235 0L196 0L196 0L157 0L157 0L117 0L117 0L78 0L78 0L39 0L39 0L0 0Z" fill="#c00016"></path><path d="M0 1L39 1L39 2L78 2L78 58L117 58L117 14L157 14L157 79L196 79L196 9L235 9L235 57L274 57L274 57L313 57L313 21L352 21L352 21L391 21L391 65L430 65L430 36L470 36L470 24L509 24L509 13L548 13L548 61L587 61L587 19L626 19L626 6L665 6L665 1L704 1L704 33L743 33L743 44L783 44L783 49L822 49L822 12L861 12L861 59L900 59L900 67L900 0L900 0L861 0L861 0L822 0L822 0L783 0L783 0L743 0L743 0L704 0L704 0L665 0L665 0L626 0L626 0L587 0L587 0L548 0L548 0L509 0L509 0L470 0L470 0L430 0L430 0L391 0L391 0L352 0L352 0L313 0L313 0L274 0L274 0L235 0L235 0L196 0L196 0L157 0L157 0L117 0L117 0L78 0L78 0L39 0L39 0L0 0Z" fill="#b7000f"></path><path d="M0 52L39 52L39 30L78 30L78 44L117 44L117 7L157 7L157 28L196 28L196 12L235 12L235 16L274 16L274 7L313 7L313 41L352 41L352 52L391 52L391 21L430 21L430 49L470 49L470 29L509 29L509 63L548 63L548 35L587 35L587 1L626 1L626 64L665 64L665 14L704 14L704 11L743 11L743 13L783 13L783 46L822 46L822 23L861 23L861 48L900 48L900 5L900 0L900 0L861 0L861 0L822 0L822 0L783 0L783 0L743 0L743 0L704 0L704 0L665 0L665 0L626 0L626 0L587 0L587 0L548 0L548 0L509 0L509 0L470 0L470 0L430 0L430 0L391 0L391 0L352 0L352 0L313 0L313 0L274 0L274 0L235 0L235 0L196 0L196 0L157 0L157 0L117 0L117 0L78 0L78 0L39 0L39 0L0 0Z" fill="#ae0007"></path><path d="M0 35L39 35L39 28L78 28L78 20L117 20L117 16L157 16L157 12L196 12L196 24L235 24L235 42L274 42L274 1L313 1L313 4L352 4L352 19L391 19L391 35L430 35L430 10L470 10L470 35L509 35L509 2L548 2L548 0L587 0L587 29L626 29L626 2L665 2L665 12L704 12L704 26L743 26L743 17L783 17L783 41L822 41L822 2L861 2L861 1L900 1L900 23L900 0L900 0L861 0L861 0L822 0L822 0L783 0L783 0L743 0L743 0L704 0L704 0L665 0L665 0L626 0L626 0L587 0L587 0L548 0L548 0L509 0L509 0L470 0L470 0L430 0L430 0L391 0L391 0L352 0L352 0L313 0L313 0L274 0L274 0L235 0L235 0L196 0L196 0L157 0L157 0L117 0L117 0L78 0L78 0L39 0L39 0L0 0Z" fill="#a50000"></path></svg>