<svg id="visual" viewBox="0 0 900 600" width="900" height="600" xmlns="http://www.w3.org/2000/svg" xmlns:xlink="http://www.w3.org/1999/xlink" version="1.1"><rect x="0" y="0" width="900" height="600" fill="#070206"></rect><path d="M497 600L685 600L685 563L628 563L628 525L688 525L688 488L641 488L641 450L753 450L753 413L508 413L508 375L755 375L755 338L532 338L532 300L528 300L528 263L688 263L688 225L524 225L524 188L746 188L746 150L632 150L632 113L671 113L671 75L598 75L598 38L572 38L572 0L900 0L900 38L900 38L900 75L900 75L900 113L900 113L900 150L900 150L900 188L900 188L900 225L900 225L900 263L900 263L900 300L900 300L900 338L900 338L900 375L900 375L900 413L900 413L900 450L900 450L900 488L900 488L900 525L900 525L900 563L900 563L900 600L900 600Z" fill="#f80241"></path><path d="M765 600L554 600L554 563L721 563L721 525L605 525L605 488L620 488L620 450L532 450L532 413L644 413L644 375L739 375L739 338L562 338L562 300L777 300L777 263L626 263L626 225L662 225L662 188L648 188L648 150L775 150L775 113L591 113L591 75L631 75L631 38L769 38L769 0L900 0L900 38L900 38L900 75L900 75L900 113L900 113L900 150L900 150L900 188L900 188L900 225L900 225L900 263L900 263L900 300L900 300L900 338L900 338L900 375L900 375L900 413L900 413L900 450L900 450L900 488L900 488L900 525L900 525L900 563L900 563L900 600L900 600Z" fill="#eb0440"></path><path d="M696 600L772 600L772 563L660 563L660 525L746 525L746 488L754 488L754 450L644 450L644 413L639 413L639 375L770 375L770 338L693 338L693 300L598 300L598 263L695 263L695 225L596 225L596 188L627 188L627 150L701 150L701 113L590 113L590 75L714 75L714 38L673 38L673 0L900 0L900 38L900 38L900 75L900 75L900 113L900 113L900 150L900 150L900 188L900 188L900 225L900 225L900 263L900 263L900 300L900 300L900 338L900 338L900 375L900 375L900 413L900 413L900 450L900 450L900 488L900 488L900 525L900 525L900 563L900 563L900 600L900 600Z" fill="#de063e"></path><path d="M682 600L604 600L604 563L626 563L626 525L637 525L637 488L648 488L648 450L779 450L779 413L662 413L662 375L633 375L633 338L631 338L631 300L764 300L764 263L757 263L757 225L717 225L717 188L691 188L691 150L682 150L682 113L605 113L605 75L604 75L604 38L710 38L710 0L900 0L900 38L900 38L900 75L900 75L900 113L900 113L900 150L900 150L900 188L900 188L900 225L900 225L900 263L900 263L900 300L900 300L900 338L900 338L900 375L900 375L900 413L900 413L900 450L900 450L900 488L900 488L900 525L900 525L900 563L900 563L900 600L900 600Z" fill="#d1093d"></path><path d="M776 600L650 600L650 563L754 563L754 525L729 525L729 488L744 488L744 450L635 450L635 413L755 413L755 375L680 375L680 338L639 338L639 300L686 300L686 263L787 263L787 225L722 225L722 188L777 188L777 150L748 150L748 113L666 113L666 75L782 75L782 38L679 38L679 0L900 0L900 38L900 38L900 75L900 75L900 113L900 113L900 150L900 150L900 188L900 188L900 225L900 225L900 263L900 263L900 300L900 300L900 338L900 338L900 375L900 375L900 413L900 413L900 450L900 450L900 488L900 488L900 525L900 525L900 563L900 563L900 600L900 600Z" fill="#c50b3b"></path><path d="M801 600L735 600L735 563L704 563L704 525L766 525L766 488L713 488L713 450L669 450L669 413L802 413L802 375L737 375L737 338L767 338L767 300L796 300L796 263L816 263L816 225L790 225L790 188L670 188L670 150L703 150L703 113L706 113L706 75L691 75L691 38L713 38L713 0L900 0L900 38L900 38L900 75L900 75L900 113L900 113L900 150L900 150L900 188L900 188L900 225L900 225L900 263L900 263L900 300L900 300L900 338L900 338L900 375L900 375L900 413L900 413L900 450L900 450L900 488L900 488L900 525L900 525L900 563L900 563L900 600L900 600Z" fill="#b80d39"></path><path d="M809 600L786 600L786 563L702 563L702 525L827 525L827 488L767 488L767 450L801 450L801 413L714 413L714 375L713 375L713 338L719 338L719 300L716 300L716 263L742 263L742 225L807 225L807 188L759 188L759 150L809 150L809 113L790 113L790 75L705 75L705 38L766 38L766 0L900 0L900 38L900 38L900 75L900 75L900 113L900 113L900 150L900 150L900 188L900 188L900 225L900 225L900 263L900 263L900 300L900 300L900 338L900 338L900 375L900 375L900 413L900 413L900 450L900 450L900 488L900 488L900 525L900 525L900 563L900 563L900 600L900 600Z" fill="#ab0f37"></path><path d="M747 600L819 600L819 563L824 563L824 525L797 525L797 488L769 488L769 450L818 450L818 413L783 413L783 375L773 375L773 338L769 338L769 300L829 300L829 263L791 263L791 225L794 225L794 188L829 188L829 150L842 150L842 113L764 113L764 75L743 75L743 38L769 38L769 0L900 0L900 38L900 38L900 75L900 75L900 113L900 113L900 150L900 150L900 188L900 188L900 225L900 225L900 263L900 263L900 300L900 300L900 338L900 338L900 375L900 375L900 413L900 413L900 450L900 450L900 488L900 488L900 525L900 525L900 563L900 563L900 600L900 600Z" fill="#9f1034"></path><path d="M837 600L796 600L796 563L853 563L853 525L801 525L801 488L824 488L824 450L829 450L829 413L768 413L768 375L835 375L835 338L796 338L796 300L844 300L844 263L778 263L778 225L852 225L852 188L816 188L816 150L768 150L768 113L820 113L820 75L844 75L844 38L818 38L818 0L900 0L900 38L900 38L900 75L900 75L900 113L900 113L900 150L900 150L900 188L900 188L900 225L900 225L900 263L900 263L900 300L900 300L900 338L900 338L900 375L900 375L900 413L900 413L900 450L900 450L900 488L900 488L900 525L900 525L900 563L900 563L900 600L900 600Z" fill="#921132"></path><path d="M834 600L825 600L825 563L830 563L830 525L807 525L807 488L826 488L826 450L865 450L865 413L843 413L843 375L851 375L851 338L817 338L817 300L855 300L855 263L858 263L858 225L840 225L840 188L825 188L825 150L836 150L836 113L846 113L846 75L818 75L818 38L822 38L822 0L900 0L900 38L900 38L900 75L900 75L900 113L900 113L900 150L900 150L900 188L900 188L900 225L900 225L900 263L900 263L900 300L900 300L900 338L900 338L900 375L900 375L900 413L900 413L900 450L900 450L900 488L900 488L900 525L900 525L900 563L900 563L900 600L900 600Z" fill="#86122f"></path><path d="M840 600L851 600L851 563L860 563L860 525L846 525L846 488L873 488L873 450L866 450L866 413L864 413L864 375L854 375L854 338L850 338L850 300L868 300L868 263L841 263L841 225L869 225L869 188L841 188L841 150L878 150L878 113L849 113L849 75L840 75L840 38L837 38L837 0L900 0L900 38L900 38L900 75L900 75L900 113L900 113L900 150L900 150L900 188L900 188L900 225L900 225L900 263L900 263L900 300L900 300L900 338L900 338L900 375L900 375L900 413L900 413L900 450L900 450L900 488L900 488L900 525L900 525L900 563L900 563L900 600L900 600Z" fill="#7a122c"></path></svg>